<?xml version="1.0" standalone="no"?>
<!DOCTYPE svg PUBLIC "-//W3C//DTD SVG 20010904//EN"
 "http://www.w3.org/TR/2001/REC-SVG-20010904/DTD/svg10.dtd">
<svg version="1.0" xmlns="http://www.w3.org/2000/svg"
 width="300.000000pt" height="300.000000pt" viewBox="0 0 300.000000 300.000000"
 preserveAspectRatio="xMidYMid meet">
<metadata>
Created by potrace 1.14, written by Peter Selinger 2001-2017
</metadata>
<g transform="translate(0.000000,300.000000) scale(0.100000,-0.100000)"
fill="#000000" stroke="none">
<path d="M1824 2824 c-34 -8 -109 -87 -99 -104 10 -16 -1 -12 -53 21 -42 26
-53 29 -72 19 -36 -19 -40 -48 -20 -125 2 -5 -3 -25 -10 -43 -10 -28 -16 -33
-35 -28 -33 8 -72 -15 -70 -42 3 -39 -10 -24 -27 31 -9 28 -22 66 -29 82 -7
17 -14 39 -16 50 -9 49 -38 90 -65 93 -16 2 -28 -1 -28 -7 0 -5 -9 -13 -20
-16 -11 -4 -20 -15 -20 -26 0 -18 -3 -17 -25 10 -87 103 -236 104 -294 1 -18
-32 -23 -52 -30 -111 -1 -3 -21 -5 -45 -5 -50 -1 -93 -27 -103 -64 -9 -30 -6
-45 13 -85 14 -28 14 -31 -8 -45 -12 -8 -30 -23 -40 -32 -16 -16 -17 -16 -23
3 -9 28 -44 39 -113 35 -47 -2 -68 -9 -100 -32 -48 -34 -82 -97 -86 -157 -2
-45 -12 -70 -25 -62 -15 9 -74 -39 -81 -66 -10 -35 11 -92 37 -103 17 -8 20
-16 16 -42 -3 -20 1 -40 11 -56 15 -23 15 -26 -4 -43 -11 -10 -20 -22 -20 -26
0 -16 118 -125 206 -190 50 -37 91 -73 92 -81 14 -158 24 -172 338 -479 180
-175 192 -190 192 -234 0 -20 5 -42 11 -48 9 -9 3 -14 -21 -23 -34 -11 -51
-36 -63 -91 -6 -28 -2 -37 24 -63 16 -17 44 -33 61 -37 28 -5 31 -9 25 -32
-13 -49 -16 -66 -22 -116 -3 -27 -12 -59 -19 -70 -20 -28 -17 -34 14 -30 25 3
30 -1 41 -31 14 -40 60 -78 119 -98 23 -8 55 -25 71 -37 42 -31 113 -29 185 5
30 14 60 26 66 26 19 0 94 42 113 63 9 11 17 26 17 34 0 7 8 13 18 14 9 0 34
21 56 45 l38 44 -41 37 c-41 36 -87 100 -79 108 2 2 19 7 38 10 19 3 43 8 53
11 20 6 51 60 42 74 -3 5 -1 11 5 15 6 4 8 10 6 14 -3 4 -7 20 -10 35 -6 34
-21 52 -55 69 -27 13 -27 15 -16 111 5 37 8 41 231 261 186 184 264 277 264
316 0 24 28 49 130 115 104 68 163 99 223 118 17 6 17 7 0 30 -10 14 -29 31
-43 38 -14 7 -29 19 -33 25 -4 7 -17 13 -27 13 -28 0 -25 11 15 47 41 38 59
77 50 113 -10 38 -50 85 -88 103 -32 16 -33 18 -31 70 1 30 5 69 9 86 3 17 6
34 5 37 -1 4 2 10 7 13 5 3 13 17 19 31 18 40 -4 52 -86 49 -39 -1 -72 0 -74
2 -2 2 -7 21 -10 43 -10 60 -8 59 -81 40 -50 -12 -101 -51 -125 -94 -5 -8 -12
-11 -16 -7 -5 4 -3 16 4 25 36 51 71 140 66 167 -3 17 -9 32 -15 33 -5 2 -9
10 -9 17 0 17 -42 26 -98 21 l-43 -3 -32 68 c-17 38 -38 69 -45 69 -7 0 -11 4
-7 10 3 5 -12 21 -34 36 -40 26 -102 38 -147 28z m-599 -2112 c3 -8 3 -17 1
-19 -7 -8 -76 18 -76 27 0 16 69 8 75 -8z m633 -19 c0 -13 -6 -23 -13 -23 -8
0 -15 -4 -17 -9 -1 -5 -20 -12 -41 -15 -33 -5 -38 -4 -35 11 3 13 12 17 33 16
22 -2 26 0 15 7 -11 7 -11 10 -2 10 7 0 11 4 8 9 -7 10 11 19 35 18 10 -1 17
-10 17 -24z m22 -3 c0 -5 -2 -10 -4 -10 -3 0 -8 5 -11 10 -3 6 -1 10 4 10 6 0
11 -4 11 -10z"/>
</g>
</svg>
