<svg width="16" height="17" viewBox="0 0 16 17" fill="none" xmlns="http://www.w3.org/2000/svg">
<path d="M8 9.83325H8.66667C9.4 9.83325 10 9.23325 10 8.49992V1.83325H4C3 1.83325 2.12667 2.38658 1.67334 3.19991" stroke="#2E3514" stroke-linecap="round" stroke-linejoin="round"/>
<path d="M1.33333 11.8333C1.33333 12.9399 2.22666 13.8333 3.33333 13.8333H3.99999C3.99999 13.0999 4.59999 12.4999 5.33333 12.4999C6.06666 12.4999 6.66666 13.0999 6.66666 13.8333H9.33333C9.33333 13.0999 9.93333 12.4999 10.6667 12.4999C11.4 12.4999 12 13.0999 12 13.8333H12.6667C13.7733 13.8333 14.6667 12.9399 14.6667 11.8333V9.83325H12.6667C12.3 9.83325 12 9.53325 12 9.16659V7.16659C12 6.79992 12.3 6.49992 12.6667 6.49992H13.5266L12.3867 4.50659C12.1467 4.09326 11.7067 3.83325 11.2267 3.83325H9.99999V8.49992C9.99999 9.23325 9.39999 9.83325 8.66666 9.83325H7.99999" stroke="#2E3514" stroke-linecap="round" stroke-linejoin="round"/>
<path d="M5.33333 15.1667C6.06971 15.1667 6.66667 14.5697 6.66667 13.8333C6.66667 13.097 6.06971 12.5 5.33333 12.5C4.59695 12.5 4 13.097 4 13.8333C4 14.5697 4.59695 15.1667 5.33333 15.1667Z" stroke="#2E3514" stroke-linecap="round" stroke-linejoin="round"/>
<path d="M10.6667 15.1667C11.403 15.1667 12 14.5697 12 13.8333C12 13.097 11.403 12.5 10.6667 12.5C9.93028 12.5 9.33333 13.097 9.33333 13.8333C9.33333 14.5697 9.93028 15.1667 10.6667 15.1667Z" stroke="#2E3514" stroke-linecap="round" stroke-linejoin="round"/>
<path d="M14.6667 8.5V9.83333H12.6667C12.3 9.83333 12 9.53333 12 9.16667V7.16667C12 6.8 12.3 6.5 12.6667 6.5H13.5267L14.6667 8.5Z" stroke="#2E3514" stroke-linecap="round" stroke-linejoin="round"/>
<path d="M1.33333 5.83325H5.33333" stroke="#2E3514" stroke-linecap="round" stroke-linejoin="round"/>
<path d="M1.33333 7.83325H3.99999" stroke="#2E3514" stroke-linecap="round" stroke-linejoin="round"/>
<path d="M1.33333 9.83325H2.66666" stroke="#2E3514" stroke-linecap="round" stroke-linejoin="round"/>
</svg>
